# xmcd
#
# Track frame offsets:
#	150
#	13440
#	29987
#	51100
#	68394
#	81369
#	95124
#	113301
#	125908
#	145380
#	163328
#	177858
#	193065
#	208270
#	222998
#
# Disc length: 3209 seconds
#
# Revision: 3
# Processed by: cddbd v1.5.2PL0 Copyright (c) Steve Scherf et al.
# Submitted via: audiograbber 1.83.01
#
DISCID=ed0c870f
DTITLE=Various Artist - SC7592
DYEAR=2002
DGENRE=Karaoke
TTITLE0=Judds, The - Rockin' With The Rhythm Of The Rain
TTITLE1=George Strait - You Look So Good In Love
TTITLE2=Ronnie Milsap - Stranger In My House
TTITLE3=Judds, The - Why Not Me
TTITLE4=Shelly West - Jose Cuervo
TTITLE5=Hank Williams Jr, Hank and Hank Williams - There's A Tear In My Bear
TTITLE6=Kenny Rogers - Love Will Turn You Around
TTITLE7=Dolly Parton - Why'd You Come In Here Lookin' Like That
TTITLE8=Alabama - Roll On (Eighteen Wheeler)
TTITLE9=Tany Tucker - Love Me Like You Used To
TTITLE10=Oak Ridge Boys, The - American Made
TTITLE11=Reba McEntire - Little Rock
TTITLE12=Travis Tritt - Country Club
TTITLE13=Judds, The - Girls Night Out
TTITLE14=Keith Whitley - When You Say Nothing At All
EXTD=
EXTT0=
EXTT1=
EXTT2=
EXTT3=
EXTT4=
EXTT5=
EXTT6=
EXTT7=
EXTT8=
EXTT9=
EXTT10=
EXTT11=
EXTT12=
EXTT13=
EXTT14=
PLAYORDER=
